<svg width="256" height="256" viewBox="0 0 256 256" fill="none" xmlns="http://www.w3.org/2000/svg">
<rect width="256" height="256" rx="128" fill="url(#paint0_linear_402_38)"/>
<path d="M239.148 121.394C246.051 125.392 245.725 135.465 238.578 139.008L67.8242 223.652C61.0858 226.992 53.2103 221.978 53.3856 214.459L57.6064 33.3836C57.7836 25.7852 66.0375 21.1542 72.6148 24.9628L239.148 121.394Z" fill="url(#paint1_linear_402_38)"/>
<path d="M126.43 74.496H121.246V112H118.238L94.1095 79.232H93.8535V107.904H100.446V112H84.5735V107.904H89.3735V74.496H83.8695V70.4H92.8295L116.51 102.464H116.766V74.496H110.494V70.4H126.43V74.496ZM172.098 91.2C172.098 95.1253 171.223 98.7093 169.474 101.952C167.724 105.195 165.271 107.797 162.114 109.76C158.956 111.68 155.287 112.64 151.106 112.64C144.834 112.64 139.82 110.549 136.066 106.368C132.311 102.144 130.434 97.088 130.434 91.2C130.434 85.2267 132.354 80.1707 136.194 76.032C140.076 71.8507 145.09 69.76 151.234 69.76C157.463 69.76 162.498 71.8507 166.338 76.032C170.178 80.2133 172.098 85.2693 172.098 91.2ZM167.042 91.264C167.042 86.272 165.612 82.1547 162.754 78.912C159.895 75.6267 156.055 73.984 151.234 73.984C146.284 73.984 142.423 75.648 139.65 78.976C136.876 82.304 135.49 86.3573 135.49 91.136C135.49 95.8293 136.876 99.8827 139.65 103.296C142.423 106.709 146.327 108.416 151.362 108.416C156.268 108.416 160.108 106.773 162.882 103.488C165.655 100.16 167.042 96.0853 167.042 91.264ZM62.3625 185.8C59.0345 188.36 54.4052 189.64 48.4745 189.64C42.4158 189.64 37.5092 187.635 33.7545 183.624C29.9998 179.571 28.1225 174.515 28.1225 168.456C28.1225 164.616 28.9332 161.053 30.5545 157.768C32.1758 154.44 34.4585 151.773 37.4025 149.768C40.3465 147.763 43.8452 146.76 47.8985 146.76C51.3545 146.76 54.2345 147.208 56.5385 148.104C58.8852 149 60.9118 150.173 62.6185 151.624L63.7705 159.624L59.7385 160.008L58.5865 153.928C57.2212 153.032 55.7492 152.328 54.1705 151.816C52.5918 151.261 50.6292 150.984 48.2825 150.984C43.7172 150.984 40.0265 152.605 37.2105 155.848C34.4372 159.091 33.0505 163.229 33.0505 168.264C33.0505 173.427 34.4798 177.587 37.3385 180.744C40.2398 183.859 44.1652 185.416 49.1145 185.416C52.7412 185.416 55.7918 184.797 58.2665 183.56L59.4825 177.416L63.4505 177.8L62.3625 185.8ZM111.098 168.2C111.098 172.125 110.223 175.709 108.474 178.952C106.724 182.195 104.271 184.797 101.114 186.76C97.9562 188.68 94.2868 189.64 90.1055 189.64C83.8335 189.64 78.8202 187.549 75.0655 183.368C71.3108 179.144 69.4335 174.088 69.4335 168.2C69.4335 162.227 71.3535 157.171 75.1935 153.032C79.0762 148.851 84.0895 146.76 90.2335 146.76C96.4628 146.76 101.498 148.851 105.338 153.032C109.178 157.213 111.098 162.269 111.098 168.2ZM106.042 168.264C106.042 163.272 104.612 159.155 101.754 155.912C98.8948 152.627 95.0548 150.984 90.2335 150.984C85.2842 150.984 81.4228 152.648 78.6495 155.976C75.8762 159.304 74.4895 163.357 74.4895 168.136C74.4895 172.829 75.8762 176.883 78.6495 180.296C81.4228 183.709 85.3268 185.416 90.3615 185.416C95.2682 185.416 99.1082 183.773 101.882 180.488C104.655 177.16 106.042 173.085 106.042 168.264ZM153.349 151.496H149.444L134.405 189H130.693L115.653 151.496H111.556V147.4H126.597V151.496H120.773L132.677 182.088H132.997L144.645 151.496H138.757V147.4H153.349V151.496ZM186.977 189H156.001V184.904H161.249V151.496H156.001V147.4H186.401L187.681 159.176L183.585 159.624L182.305 151.496H165.921V165.832H185.569V169.928H165.921V184.904H182.881L184.161 176.776L188.193 177.224L186.977 189ZM229.786 189H221.466L212.506 171.592H203.61V184.904H209.178V189H193.626V184.904H198.874V151.496H193.626V147.4H211.61C216.772 147.4 220.463 148.531 222.682 150.792C224.9 153.011 226.01 155.805 226.01 159.176C226.01 161.864 225.263 164.275 223.77 166.408C222.276 168.499 220.058 169.928 217.114 170.696L224.538 184.904H229.786V189ZM221.082 159.368C221.082 156.637 220.292 154.653 218.714 153.416C217.135 152.136 214.575 151.496 211.034 151.496H203.61V167.688H211.162C214.703 167.688 217.242 166.963 218.778 165.512C220.314 164.019 221.082 161.971 221.082 159.368Z" fill="white"/>
<defs>
<linearGradient id="paint0_linear_402_38" x1="256" y1="0" x2="0" y2="256" gradientUnits="userSpaceOnUse">
<stop stop-color="#000A66"/>
<stop offset="0.892778" stop-color="#6A7797"/>
</linearGradient>
<linearGradient id="paint1_linear_402_38" x1="255.273" y1="130.732" x2="6.13179" y2="125.17" gradientUnits="userSpaceOnUse">
<stop stop-color="#7B00C7" stop-opacity="0.29"/>
<stop offset="1" stop-color="#2800C8" stop-opacity="0.03"/>
</linearGradient>
</defs>
</svg>
